<?xml version="1.0" encoding="utf-8"?>
<!-- Generator: Adobe Illustrator 23.0.3, SVG Export Plug-In . SVG Version: 6.00 Build 0)  -->
<svg version="1.1" id="Layer_1" xmlns="http://www.w3.org/2000/svg" xmlns:xlink="http://www.w3.org/1999/xlink" x="0px" y="0px"
	 viewBox="0 0 256 331" style="enable-background:new 0 0 256 331;" xml:space="preserve">
<style type="text/css">
	.st0{fill:url(#SVGID_1_);}
	.st1{fill:url(#SVGID_2_);}
	.st2{fill:url(#SVGID_3_);}
	.st3{fill:url(#SVGID_4_);}
	.st4{fill:url(#SVGID_5_);}
	.st5{fill:url(#SVGID_6_);}
	.st6{fill:url(#SVGID_7_);}
	.st7{fill:url(#SVGID_8_);}
	.st8{fill:url(#SVGID_9_);}
</style>
<g>
	<linearGradient id="SVGID_1_" gradientUnits="userSpaceOnUse" x1="4.3308" y1="161.1371" x2="251.6692" y2="94.8629">
		<stop  offset="0" style="stop-color:#39B54A"/>
		<stop  offset="1" style="stop-color:#66CF4A"/>
	</linearGradient>
	<circle class="st0" cx="128" cy="128" r="128"/>
</g>
<g>
	<path d="M91.6,184.4L91.6,184.4c-7.54,0-13.65-6.11-13.65-13.65V55.25c0-7.54,6.11-13.65,13.65-13.65h0
		c7.54,0,13.65,6.11,13.65,13.65v115.5C105.25,178.29,99.14,184.4,91.6,184.4z"/>
</g>
<g>
	<path d="M51.7,184.4L51.7,184.4c-7.54,0-13.65-6.11-13.65-13.65v-46.9c0-7.54,6.11-13.65,13.65-13.65h0
		c7.54,0,13.65,6.11,13.65,13.65v46.9C65.35,178.29,59.24,184.4,51.7,184.4z"/>
</g>
<g>
	<path d="M129.4,183.9c-7.25,0-13.15-5.9-13.15-13.15v-80.5c0-7.25,5.9-13.15,13.15-13.15s13.15,5.9,13.15,13.15v80.5
		C142.55,178,136.65,183.9,129.4,183.9z"/>
	<path d="M129.4,77.6c6.98,0,12.65,5.67,12.65,12.65v80.5c0,6.98-5.67,12.65-12.65,12.65c-6.98,0-12.65-5.67-12.65-12.65v-80.5
		C116.75,83.27,122.42,77.6,129.4,77.6 M129.4,76.6L129.4,76.6c-7.54,0-13.65,6.11-13.65,13.65v80.5c0,7.54,6.11,13.65,13.65,13.65
		h0c7.54,0,13.65-6.11,13.65-13.65v-80.5C143.05,82.71,136.94,76.6,129.4,76.6L129.4,76.6z"/>
</g>
<g>
	<path d="M167.2,184.4L167.2,184.4c-7.54,0-13.65-6.11-13.65-13.65v-23.8c0-7.54,6.11-13.65,13.65-13.65h0
		c7.54,0,13.65,6.11,13.65,13.65v23.8C180.85,178.29,174.74,184.4,167.2,184.4z"/>
</g>
<g>
	<path d="M204.3,184.4L204.3,184.4c-7.54,0-13.65-6.11-13.65-13.65v0c0-7.54,6.11-13.65,13.65-13.65h0
		c7.54,0,13.65,6.11,13.65,13.65v0C217.95,178.29,211.84,184.4,204.3,184.4z"/>
</g>
<g>
	<linearGradient id="SVGID_2_" gradientUnits="userSpaceOnUse" x1="-3.8344" y1="287.5449" x2="172.9996" y2="249.707">
		<stop  offset="0" style="stop-color:#39B54A"/>
		<stop  offset="1" style="stop-color:#66CF4A"/>
	</linearGradient>
	<path class="st1" d="M8.58,292.78l8.28-4.8c1.5,3.48,4.08,5.82,8.82,5.82c4.56,0,5.7-1.8,5.7-3.42c0-2.58-2.4-3.6-8.7-5.34
		c-6.24-1.74-12.36-4.74-12.36-12.78c0-8.1,6.84-12.78,14.1-12.78c6.9,0,12.3,3.3,15.36,9.48l-8.1,4.74c-1.44-3-3.42-4.86-7.26-4.86
		c-3,0-4.5,1.5-4.5,3.18c0,1.92,1.02,3.24,7.56,5.22c6.36,1.92,13.5,4.14,13.5,13.02c0,8.1-6.48,12.9-15.6,12.9
		C16.56,303.16,10.92,298.96,8.58,292.78z"/>
	<linearGradient id="SVGID_3_" gradientUnits="userSpaceOnUse" x1="-0.737" y1="302.0206" x2="176.097" y2="264.1828">
		<stop  offset="0" style="stop-color:#39B54A"/>
		<stop  offset="1" style="stop-color:#66CF4A"/>
	</linearGradient>
	<path class="st2" d="M90.48,283.9v18.42h-9v-17.64c0-3-1.44-4.92-4.32-4.92c-3,0-4.68,2.1-4.68,5.64v16.92h-9v-17.64
		c0-3-1.44-4.92-4.32-4.92c-3,0-4.68,2.1-4.68,5.64v16.92h-9v-30h9v2.76c1.38-2.04,4.02-3.6,8.04-3.6c3.54,0,6.18,1.44,7.86,3.96
		c1.68-2.4,4.44-3.96,8.7-3.96C85.98,271.48,90.48,276.4,90.48,283.9z"/>
	<linearGradient id="SVGID_4_" gradientUnits="userSpaceOnUse" x1="1.3568" y1="311.8056" x2="178.1908" y2="273.9677">
		<stop  offset="0" style="stop-color:#39B54A"/>
		<stop  offset="1" style="stop-color:#66CF4A"/>
	</linearGradient>
	<path class="st3" d="M127.44,272.32v30h-9v-2.82c-1.98,2.28-4.92,3.66-8.94,3.66c-7.86,0-14.34-6.9-14.34-15.84
		c0-8.94,6.48-15.84,14.34-15.84c4.02,0,6.96,1.38,8.94,3.66v-2.82H127.44z M118.44,287.32c0-4.5-3-7.32-7.14-7.32
		s-7.14,2.82-7.14,7.32c0,4.5,3,7.32,7.14,7.32S118.44,291.82,118.44,287.32z"/>
	<linearGradient id="SVGID_5_" gradientUnits="userSpaceOnUse" x1="2.3522" y1="316.4575" x2="179.1861" y2="278.6197">
		<stop  offset="0" style="stop-color:#39B54A"/>
		<stop  offset="1" style="stop-color:#66CF4A"/>
	</linearGradient>
	<path class="st4" d="M152.04,271.72v10.2c-3.72-0.6-9,0.9-9,6.84v13.56h-9v-30h9v5.34C144.24,273.64,148.26,271.72,152.04,271.72z"
		/>
	<linearGradient id="SVGID_6_" gradientUnits="userSpaceOnUse" x1="2.9415" y1="319.2119" x2="179.7755" y2="281.374">
		<stop  offset="0" style="stop-color:#39B54A"/>
		<stop  offset="1" style="stop-color:#66CF4A"/>
	</linearGradient>
	<path class="st5" d="M168.54,280.96v10.62c0,2.58,2.22,2.82,6.18,2.58v8.16c-11.76,1.2-15.18-2.34-15.18-10.74v-10.62h-4.8v-8.64
		h4.8v-5.7l9-2.7v8.4h6.18v8.64H168.54z"/>
	<linearGradient id="SVGID_7_" gradientUnits="userSpaceOnUse" x1="3.0678" y1="319.8022" x2="179.9018" y2="281.9644">
		<stop  offset="0" style="stop-color:#39B54A"/>
		<stop  offset="1" style="stop-color:#66CF4A"/>
	</linearGradient>
	<path class="st6" d="M178.92,264.28c0-2.94,2.46-5.4,5.4-5.4c2.94,0,5.4,2.46,5.4,5.4c0,2.94-2.46,5.4-5.4,5.4
		C181.38,269.68,178.92,267.22,178.92,264.28z M179.82,272.32h9v30h-9V272.32z"/>
	<linearGradient id="SVGID_8_" gradientUnits="userSpaceOnUse" x1="4.0425" y1="324.3575" x2="180.8765" y2="286.5196">
		<stop  offset="0" style="stop-color:#39B54A"/>
		<stop  offset="1" style="stop-color:#66CF4A"/>
	</linearGradient>
	<path class="st7" d="M206.34,272.32h5.58v8.64h-5.58v21.36h-9v-21.36h-4.02v-8.64h4.02c0-8.4,4.62-13.44,14.58-12.84v8.64
		C208.56,267.82,206.34,268.84,206.34,272.32z"/>
	<linearGradient id="SVGID_9_" gradientUnits="userSpaceOnUse" x1="7.0182" y1="338.2641" x2="183.8522" y2="300.4262">
		<stop  offset="0" style="stop-color:#39B54A"/>
		<stop  offset="1" style="stop-color:#66CF4A"/>
	</linearGradient>
	<path class="st8" d="M244.92,272.32l-10.26,29.1c-3.36,9.54-8.7,13.32-17.1,12.9v-8.4c4.2,0,6.18-1.32,7.5-4.98l-11.94-28.62h9.9
		l6.66,18.36l5.64-18.36H244.92z"/>
</g>
<g>
</g>
<g>
</g>
<g>
</g>
<g>
</g>
<g>
</g>
<g>
</g>
<g>
</g>
<g>
</g>
<g>
</g>
<g>
</g>
<g>
</g>
<g>
</g>
<g>
</g>
<g>
</g>
<g>
</g>
</svg>
