<?xml version="1.0" encoding="utf-8"?>
<!-- Generator: Adobe Illustrator 24.0.1, SVG Export Plug-In . SVG Version: 6.00 Build 0)  -->
<svg version="1.1" id="Layer_1" xmlns="http://www.w3.org/2000/svg" xmlns:xlink="http://www.w3.org/1999/xlink" x="0px" y="0px"
	 viewBox="0 0 1024 1024" style="enable-background:new 0 0 1024 1024;" xml:space="preserve">
<g>
	<g>
		<path d="M841.99,459.71c-31.98,0-57.86,36.87-57.86,82.52c0,27.1,14.89,45.17,37.6,45.17c31.01,0,57.86-38.33,57.86-82.52
			C879.58,477.53,864.69,459.71,841.99,459.71z"/>
	</g>
	<g>
		<path d="M525.33,457.03c-30.76,0-57.86,38.57-57.86,82.76c0,27.34,14.89,45.17,37.6,45.17c31.98,0,57.86-36.87,57.86-82.76
			C562.93,474.85,548.04,457.03,525.33,457.03z"/>
	</g>
	<g>
		<path d="M768,0H256C114.62,0,0,114.62,0,256v512c0,141.38,114.62,256,256,256h512c141.38,0,256-114.62,256-256V256
			C1024,114.62,909.38,0,768,0z M338.81,489.98l-35.16,167.24h-95.95l31.98-152.34c1.22-6.35,1.71-11.47,1.71-16.6
			c0-18.55-15.38-32.23-36.62-32.23c-23.19,0-43.21,17.58-48.58,42.97l-33.45,158.2H26.31l74.95-352.29h96.19l-26.61,123.54h1.95
			c20.02-29.3,50.29-46.14,87.65-46.14c49.32,0,82.03,30.03,82.03,74.71C342.47,467.04,341.25,478.27,338.81,489.98z M531.68,661.13
			c-39.31,0-70.8-20.26-81.05-52h-1.95l-10.25,48.1h-94.24l75.2-352.29h96.92l-26.37,121.09h2.44c16.6-26.86,46.39-42.24,81.3-42.24
			c55.18,0,89.36,38.82,89.36,102.05C663.03,585.93,606.63,661.13,531.68,661.13z M943.06,666.74
			c-12.45,58.11-67.87,92.29-150.15,92.29c-83.74,0-133.06-32.71-133.54-88.38h93.51c2.93,16.36,19.53,25.88,45.41,25.88
			c27.83,0,44.19-11.72,49.07-35.16l10.01-46.14h-4.88c-15.62,23.19-43.21,35.89-77.64,35.89c-53.47,0-89.36-39.06-89.36-97.41
			c0-93.51,60.06-169.92,133.54-169.92c36.62,0,65.43,18.8,74.46,48.83h4.39l10.25-44.92h94.24L943.06,666.74z"/>
	</g>
</g>
</svg>
